<svg width="18" height="18" viewBox="0 0 18 18" fill="none" xmlns="http://www.w3.org/2000/svg">
<path d="M18 9C18 4.02892 13.9711 0 9 0C4.02892 0 0 4.02892 0 9C0 13.493 3.29062 17.216 7.59375 17.891V11.6016H5.30858V9H7.59375V7.01719C7.59375 4.7619 8.93674 3.51562 10.9934 3.51562C11.9777 3.51562 13.0078 3.69141 13.0078 3.69141V5.90625H11.8723C10.7543 5.90625 10.4062 6.6006 10.4062 7.3125V9H12.9023L12.5033 11.6016H10.4062V17.891C14.7094 17.216 18 13.493 18 9Z" fill="#5890FF"/>
<path d="M12.5033 11.6016L12.9023 9H10.4063V7.3125C10.4063 6.6006 10.7543 5.90625 11.8723 5.90625H13.0078V3.69141C13.0078 3.69141 11.9777 3.51562 10.9934 3.51562C8.93676 3.51562 7.59377 4.7619 7.59377 7.01719V9H5.30859V11.6016H7.59377V17.891C8.05254 17.9631 8.52189 18 9.00002 18C9.47814 18 9.94749 17.9631 10.4063 17.891V11.6016H12.5033Z" fill="white"/>
</svg>
