<svg width="288" height="48" viewBox="0 0 288 48" fill="none" xmlns="http://www.w3.org/2000/svg">
<path d="M0 24C0 10.7452 10.7452 0 24 0H264C277.255 0 288 10.7452 288 24C288 37.2548 277.255 48 264 48H24C10.7452 48 0 37.2548 0 24Z" fill="url(#paint0_linear)"/>
<path d="M108.593 23.608H99.425V25.4H107.649C107.025 26.792 106.209 28.504 105.505 29.88L107.521 30.44C108.513 28.408 109.665 25.928 110.449 23.96L108.929 23.512L108.593 23.608ZM102.145 20.312C103.297 19.288 104.273 18.2 104.961 17.208C105.665 18.2 106.705 19.288 107.873 20.312H102.145ZM103.921 15.352C102.721 17.336 100.145 19.912 97.441 21.4C97.857 21.8 98.401 22.472 98.641 22.92C99.681 22.296 100.689 21.576 101.601 20.792V22.072H108.385V20.744C109.361 21.56 110.401 22.296 111.409 22.888C111.761 22.312 112.177 21.704 112.657 21.224C110.161 20.056 107.537 17.8 105.825 15.352H103.921ZM123.063 16.104H120.743C120.791 16.296 120.855 16.84 120.903 17.496C120.919 17.624 120.919 17.784 120.935 17.992C118.759 18.024 115.847 18.088 114.023 18.088L114.071 20.024C116.039 19.912 118.535 19.816 120.951 19.784C120.967 20.136 120.967 20.504 120.967 20.856C120.759 20.824 120.551 20.808 120.327 20.808C118.583 20.808 117.127 21.992 117.127 23.8C117.127 25.752 118.647 26.744 119.879 26.744C120.135 26.744 120.375 26.712 120.599 26.664C119.719 27.624 118.311 28.152 116.695 28.488L118.407 30.184C122.311 29.096 123.527 26.44 123.527 24.36C123.527 23.528 123.335 22.776 122.951 22.168C122.951 21.464 122.935 20.584 122.935 19.768C125.111 19.768 126.599 19.8 127.559 19.848L127.575 17.96C126.743 17.944 124.551 17.976 122.935 17.976C122.951 17.784 122.951 17.608 122.951 17.48C122.967 17.224 123.031 16.36 123.063 16.104ZM119.047 23.768C119.047 22.92 119.655 22.488 120.279 22.488C120.711 22.488 121.095 22.68 121.319 23.048C121.543 24.456 120.951 24.968 120.279 24.968C119.639 24.968 119.047 24.504 119.047 23.768ZM138.685 19.736L137.405 20.264C137.837 20.904 138.381 22.024 138.717 22.68L140.029 22.12C139.725 21.544 139.101 20.344 138.685 19.736ZM140.621 18.984L139.309 19.528C139.757 20.152 140.317 21.224 140.685 21.896L141.981 21.352C141.661 20.76 141.037 19.576 140.621 18.984ZM139.693 17.464L137.821 15.816C137.581 16.2 137.053 16.712 136.605 17.176C135.517 18.216 133.325 19.992 132.077 21.016C130.461 22.36 130.349 23.208 131.933 24.568C133.405 25.816 135.741 27.816 136.717 28.824C137.181 29.304 137.677 29.816 138.125 30.312L139.965 28.6C138.333 27.016 135.309 24.616 134.109 23.608C133.229 22.856 133.213 22.68 134.077 21.944C135.133 21.032 137.261 19.4 138.285 18.568C138.669 18.264 139.197 17.848 139.693 17.464ZM150.595 20.712L150.787 22.536C152.611 22.408 155.123 22.232 157.507 22.04C157.683 22.44 157.811 22.808 157.907 23.144L159.555 22.264C159.171 21.048 158.115 19.272 157.123 17.928L155.619 18.696C155.971 19.208 156.323 19.784 156.659 20.376C155.667 20.424 154.691 20.488 153.763 20.536C154.355 19.144 154.963 17.4 155.475 15.816L153.363 15.448C153.059 17.016 152.483 19.08 151.907 20.648L150.595 20.712ZM148.803 20.376C148.611 22.008 148.307 23.464 147.843 24.696C147.411 24.392 146.979 24.104 146.563 23.848C146.835 22.76 147.123 21.576 147.395 20.376H148.803ZM149.555 18.584L149.235 18.632H147.779C148.003 17.592 148.211 16.568 148.387 15.624L146.595 15.448C146.435 16.44 146.227 17.528 146.003 18.632H144.467V20.376H145.635C145.235 22.232 144.803 24.008 144.419 25.32L145.955 26.152L146.115 25.592C146.435 25.816 146.771 26.072 147.091 26.328C146.419 27.496 145.539 28.376 144.483 28.936C144.851 29.288 145.363 29.976 145.635 30.456C146.819 29.72 147.779 28.76 148.531 27.528C149.107 28.056 149.603 28.584 149.939 29.032L151.075 27.512C150.675 27 150.067 26.424 149.363 25.848C150.083 23.992 150.515 21.672 150.691 18.76L149.555 18.584ZM156.771 25.432V28.056H153.411V25.432H156.771ZM151.619 30.392H153.411V29.768H156.771V30.328H158.659V23.72H151.619V30.392ZM170.569 16.456L168.361 16.248C168.361 16.616 168.313 17.304 168.233 17.768C168.201 18.008 168.153 18.264 168.089 18.536C166.857 18.584 165.673 18.888 164.457 19.496C164.345 19.16 164.249 18.824 164.169 18.52C164.041 18.04 163.913 17.512 163.817 16.984L161.721 17.64C162.009 18.216 162.185 18.728 162.361 19.304C162.505 19.736 162.633 20.168 162.793 20.6C161.337 21.88 160.425 23.832 160.425 25.656C160.425 27.72 161.641 28.84 162.969 28.84C164.153 28.84 165.049 28.312 166.121 27.144C166.281 27.352 166.473 27.56 166.665 27.768L168.281 26.488C167.977 26.2 167.689 25.864 167.401 25.528C168.313 24.136 169.017 22.296 169.577 20.44C171.177 20.872 172.169 22.2 172.169 23.976C172.169 25.976 170.777 27.784 167.273 28.072L168.489 29.928C171.817 29.416 174.233 27.48 174.233 24.088C174.233 21.288 172.569 19.256 170.057 18.68C170.105 18.472 170.153 18.28 170.201 18.072C170.297 17.672 170.441 16.888 170.569 16.456ZM162.297 25.496C162.297 24.504 162.729 23.368 163.481 22.488C163.945 23.688 164.457 24.776 164.969 25.56C164.377 26.28 163.785 26.776 163.209 26.776C162.633 26.776 162.297 26.28 162.297 25.496ZM165.033 21.24C165.785 20.792 166.633 20.456 167.609 20.344C167.241 21.528 166.761 22.776 166.185 23.8C165.801 23.16 165.401 22.232 165.033 21.24ZM181.215 27.112C181.215 26.712 181.599 26.344 182.207 26.344C183.071 26.344 183.663 27.016 183.759 28.056C183.471 28.088 183.167 28.104 182.831 28.104C181.871 28.104 181.215 27.704 181.215 27.112ZM178.495 16.808L178.559 18.888C178.927 18.84 179.439 18.792 179.871 18.76C180.719 18.712 182.927 18.616 183.743 18.6C182.959 19.288 181.295 20.632 180.399 21.368C179.455 22.152 177.519 23.784 176.383 24.696L177.839 26.2C179.551 24.248 181.151 22.952 183.599 22.952C185.487 22.952 186.927 23.928 186.927 25.368C186.927 26.344 186.479 27.08 185.599 27.544C185.375 26.024 184.175 24.808 182.191 24.808C180.495 24.808 179.327 26.008 179.327 27.304C179.327 28.904 181.007 29.928 183.231 29.928C187.103 29.928 189.023 27.928 189.023 25.4C189.023 23.064 186.959 21.368 184.239 21.368C183.727 21.368 183.247 21.416 182.719 21.544C183.727 20.744 185.407 19.336 186.271 18.728C186.639 18.456 187.023 18.232 187.391 17.992L186.351 16.568C186.159 16.632 185.791 16.68 185.135 16.744C184.223 16.824 180.799 16.888 179.951 16.888C179.503 16.888 178.943 16.872 178.495 16.808Z" fill="#FCFCFC"/>
<defs>
<linearGradient id="paint0_linear" x1="288" y1="-2.30927e-06" x2="274.651" y2="87.3679" gradientUnits="userSpaceOnUse">
<stop stop-color="#2365A6"/>
<stop offset="0.0001" stop-color="#1E85EB" stop-opacity="0.6"/>
<stop offset="0.515625" stop-color="#9B6DE4"/>
<stop offset="0.9999" stop-color="#E348CE" stop-opacity="0.8"/>
<stop offset="1" stop-color="#E72475" stop-opacity="0.6"/>
<stop offset="1" stop-color="#DA62CE"/>
</linearGradient>
</defs>
</svg>
