<svg width="288" height="48" viewBox="0 0 288 48" fill="none" xmlns="http://www.w3.org/2000/svg">
<path d="M0 24C0 10.7452 10.7452 0 24 0H264C277.255 0 288 10.7452 288 24V24C288 37.2548 277.255 48 264 48H24C10.7452 48 0 37.2548 0 24V24Z" fill="url(#paint0_linear)"/>
<path d="M115.624 23.68V23.52H117.144V21.744H115.624V21.056L116.632 21.328C117.016 20.416 117.448 18.928 117.832 17.68L116.328 17.36C116.184 18.32 115.912 19.632 115.624 20.608V16.528H113.928V20.88C113.848 19.904 113.544 18.512 113.144 17.44L111.912 17.76C112.28 18.88 112.6 20.4 112.632 21.36L113.928 21.056V21.744H111.928V23.52H113.688C113.208 24.976 112.44 26.688 111.656 27.68C111.928 28.224 112.36 29.072 112.536 29.648C113.048 28.912 113.512 27.872 113.928 26.736V31.344H115.624V25.904C116.008 26.624 116.376 27.408 116.568 27.92L117.768 26.448C117.464 25.984 116.072 24.096 115.656 23.648L115.624 23.68ZM120.184 27.744V26.96H124.024V27.744H120.184ZM124.024 24.944V25.728H120.184V24.944H124.024ZM125.816 23.6H118.424V31.408H120.184V28.976H124.024V29.648C124.024 29.824 123.96 29.888 123.752 29.888C123.56 29.904 122.888 29.904 122.296 29.872C122.504 30.304 122.728 30.928 122.792 31.376C123.816 31.392 124.568 31.36 125.096 31.12C125.656 30.88 125.816 30.464 125.816 29.68V23.6ZM122.92 21.568V20.88H125.976V19.616H122.92V18.976H126.328V17.616H122.92V16.48H121.128V17.616H118.024V18.976H121.128V19.616H118.408V20.88H121.128V21.568H117.576V22.944H126.728V21.568H122.92ZM133.968 27.296V26.32H137.328V27.296H133.968ZM132.016 24.592H139.12V25.184H132.016V24.592ZM134.992 18.992C134.816 19.168 134.64 19.312 134.448 19.456C134.816 19.616 135.408 19.92 135.84 20.176H132.368L133.424 19.792C133.344 19.568 133.184 19.28 133.008 18.992H134.992ZM138.16 18.992C138.496 19.376 138.816 19.824 139.04 20.176H136.304C136.64 19.84 136.992 19.44 137.312 18.992H138.16ZM132.016 22.928H139.12V23.52H132.016V22.928ZM139.12 21.312V21.872H132.016V21.312H139.12ZM142.672 27.296H139.296V26.32H141.136V20.176H139.712L140.784 19.696C140.672 19.488 140.48 19.248 140.272 18.992H142.624V17.488H138.224C138.336 17.248 138.448 16.992 138.544 16.752L136.736 16.32C136.416 17.2 135.872 18.08 135.216 18.752V17.488H131.68C131.808 17.264 131.92 17.024 132.032 16.8L130.256 16.32C129.744 17.52 128.8 18.736 127.792 19.504C128.24 19.744 128.992 20.256 129.328 20.56C129.792 20.144 130.272 19.6 130.72 18.992H131.056C131.312 19.376 131.552 19.824 131.696 20.176H130.096V26.32H132.048V27.296H128.24V28.8H131.44C130.944 29.264 130.032 29.68 128.448 30C128.88 30.352 129.408 30.992 129.664 31.392C132.16 30.752 133.28 29.824 133.728 28.8H137.328V31.36H139.296V28.8H142.672V27.296ZM154.008 17.104H151.688C151.736 17.296 151.8 17.84 151.848 18.496C151.864 18.624 151.864 18.784 151.88 18.992C149.704 19.024 146.792 19.088 144.968 19.088L145.016 21.024C146.984 20.912 149.48 20.816 151.896 20.784C151.912 21.136 151.912 21.504 151.912 21.856C151.704 21.824 151.496 21.808 151.272 21.808C149.528 21.808 148.072 22.992 148.072 24.8C148.072 26.752 149.592 27.744 150.824 27.744C151.08 27.744 151.32 27.712 151.544 27.664C150.664 28.624 149.256 29.152 147.64 29.488L149.352 31.184C153.256 30.096 154.472 27.44 154.472 25.36C154.472 24.528 154.28 23.776 153.896 23.168C153.896 22.464 153.88 21.584 153.88 20.768C156.056 20.768 157.544 20.8 158.504 20.848L158.52 18.96C157.688 18.944 155.496 18.976 153.88 18.976C153.896 18.784 153.896 18.608 153.896 18.48C153.912 18.224 153.976 17.36 154.008 17.104ZM149.992 24.768C149.992 23.92 150.6 23.488 151.224 23.488C151.656 23.488 152.04 23.68 152.264 24.048C152.488 25.456 151.896 25.968 151.224 25.968C150.584 25.968 149.992 25.504 149.992 24.768ZM165.92 28.112C165.92 27.712 166.304 27.344 166.912 27.344C167.776 27.344 168.368 28.016 168.464 29.056C168.176 29.088 167.872 29.104 167.536 29.104C166.576 29.104 165.92 28.704 165.92 28.112ZM163.2 17.808L163.264 19.888C163.632 19.84 164.144 19.792 164.576 19.76C165.424 19.712 167.632 19.616 168.448 19.6C167.664 20.288 166 21.632 165.104 22.368C164.16 23.152 162.224 24.784 161.088 25.696L162.544 27.2C164.256 25.248 165.856 23.952 168.304 23.952C170.192 23.952 171.632 24.928 171.632 26.368C171.632 27.344 171.184 28.08 170.304 28.544C170.08 27.024 168.88 25.808 166.896 25.808C165.2 25.808 164.032 27.008 164.032 28.304C164.032 29.904 165.712 30.928 167.936 30.928C171.808 30.928 173.728 28.928 173.728 26.4C173.728 24.064 171.664 22.368 168.944 22.368C168.432 22.368 167.952 22.416 167.424 22.544C168.432 21.744 170.112 20.336 170.976 19.728C171.344 19.456 171.728 19.232 172.096 18.992L171.056 17.568C170.864 17.632 170.496 17.68 169.84 17.744C168.928 17.824 165.504 17.888 164.656 17.888C164.208 17.888 163.648 17.872 163.2 17.808Z" fill="#FCFCFC"/>
<defs>
<linearGradient id="paint0_linear" x1="400.235" y1="24" x2="352.174" y2="178.824" gradientUnits="userSpaceOnUse">
<stop stop-color="#2365A6" stop-opacity="0.6"/>
<stop offset="0.0001" stop-color="#1071D0" stop-opacity="0.6"/>
<stop offset="0.537409" stop-color="#722DE1" stop-opacity="0.5"/>
<stop offset="0.9998" stop-color="#6B17B4" stop-opacity="0.6"/>
<stop offset="0.9999" stop-color="#BA05A1" stop-opacity="0.8"/>
<stop offset="1" stop-color="#E72475" stop-opacity="0.6"/>
<stop offset="1" stop-color="#73098D" stop-opacity="0.9"/>
</linearGradient>
</defs>
</svg>
